<svg xmlns="http://www.w3.org/2000/svg" width="937.3096923828125" height="704.66064453125" viewBox="-407.6193542480469 -266.0641174316406 937.3096923828125 704.66064453125"><title>Neo4j Graph Visualization</title><desc>Created using Neo4j (http://www.neo4j.com/)</desc><g class="layer relationships"><g class="relationship" transform="translate(262.03585319455294 -79.15373944898126) rotate(484.09276826469676)"><path class="outline" fill="#A5ABB6" stroke="none" d="M 6.953439040707552 24.018736134675446 L 17.306200844808384 62.65576918623819 A 17.916697508022974 17.916697508022974 0 1 1 -17.306200844808384 62.65576918623819 L -8.765172356425198 30.780216918698923 L -4.901469051268926 31.815493099109005 L -6.4704761275630185 24.148145657226706 L -11.662949835292403 30.00375978339136 L -7.79924653013613 31.039035963801442 L -16.340275018519314 62.91458823134071 A 16.916697508022974 16.916697508022974 0 1 0 16.340275018519314 62.91458823134071 L 5.987513214418485 24.277555179777966 Z"/><text text-anchor="middle" pointer-events="none" font-size="8px" fill="#000000" x="0" y="94.20964923467838" transform="rotate(180 0 91.20964923467838)" font-family="sans-serif">Association…</text></g><g class="relationship" transform="translate(262.03585319455294 -79.15373944898126) rotate(533.4480585468085)"><path class="outline" fill="#A5ABB6" stroke="none" d="M 6.953439040707552 24.018736134675446 L 17.306200844808384 62.65576918623819 A 17.916697508022974 17.916697508022974 0 1 1 -17.306200844808384 62.65576918623819 L -8.765172356425198 30.780216918698923 L -4.901469051268926 31.815493099109005 L -6.4704761275630185 24.148145657226706 L -11.662949835292403 30.00375978339136 L -7.79924653013613 31.039035963801442 L -16.340275018519314 62.91458823134071 A 16.916697508022974 16.916697508022974 0 1 0 16.340275018519314 62.91458823134071 L 5.987513214418485 24.277555179777966 Z"/><text text-anchor="middle" pointer-events="none" font-size="8px" fill="#000000" x="0" y="94.20964923467838" transform="rotate(180 0 91.20964923467838)" font-family="sans-serif">Association…</text></g><g class="relationship" transform="translate(262.03585319455294 -79.15373944898126) rotate(222.8033488289202)"><path class="outline" fill="#A5ABB6" stroke="none" d="M 6.953439040707552 24.018736134675446 L 17.306200844808384 62.65576918623819 A 17.916697508022974 17.916697508022974 0 1 1 -17.306200844808384 62.65576918623819 L -8.765172356425198 30.780216918698923 L -4.901469051268926 31.815493099109005 L -6.4704761275630185 24.148145657226706 L -11.662949835292403 30.00375978339136 L -7.79924653013613 31.039035963801442 L -16.340275018519314 62.91458823134071 A 16.916697508022974 16.916697508022974 0 1 0 16.340275018519314 62.91458823134071 L 5.987513214418485 24.277555179777966 Z"/><text text-anchor="middle" pointer-events="none" font-size="8px" fill="#000000" x="0" y="94.20964923467838" transform="rotate(180 0 91.20964923467838)" font-family="sans-serif">Association…</text></g><g class="relationship" transform="translate(262.03585319455294 -79.15373944898126) rotate(272.158639111032)"><path class="outline" fill="#A5ABB6" stroke="none" d="M 6.953439040707552 24.018736134675446 L 17.306200844808384 62.65576918623819 A 17.916697508022974 17.916697508022974 0 1 1 -17.306200844808384 62.65576918623819 L -8.765172356425198 30.780216918698923 L -4.901469051268926 31.815493099109005 L -6.4704761275630185 24.148145657226706 L -11.662949835292403 30.00375978339136 L -7.79924653013613 31.039035963801442 L -16.340275018519314 62.91458823134071 A 16.916697508022974 16.916697508022974 0 1 0 16.340275018519314 62.91458823134071 L 5.987513214418485 24.277555179777966 Z"/><text text-anchor="middle" pointer-events="none" font-size="8px" fill="#000000" x="0" y="94.20964923467838" font-family="sans-serif">Association…</text></g><g class="relationship" transform="translate(262.03585319455294 -79.15373944898126) rotate(483.2734895508461)"><path class="outline" fill="#A5ABB6" stroke="none" d="M 21.40063509461097,12.933012701892217 L 21.90063509461097,12.06698729810778 A 397.91345295265535 397.91345295265535 0 0 0 186.83392481634996,63.920032662191545 L 186.74842020095656,64.91637043661666 A 398.91345295265535 398.91345295265535 0 0 1 21.40063509461097,12.933012701892217 Z M 248.7617226468682,65.40011687570905 L 248.69177173177775,64.4025664411555 A 397.91345295265535 397.91345295265535 0 0 0 414.41391970876026,15.12886106130882 L 412.95463334861165,12.507700379648101 L 420.77317569266006,12.160719667905408 L 416.35963485562513,18.623741970189776 L 414.9003484954765,16.00258128852906 A 398.91345295265535 398.91345295265535 0 0 1 248.7617226468682,65.40011687570905"/><text text-anchor="middle" pointer-events="none" font-size="8px" fill="#000000" x="217.74955698862914" y="68.8651601632464" transform="rotate(180 217.74955698862914 65.8651601632464)" font-family="sans-serif">AssociationType</text></g><g class="relationship" transform="translate(262.03585319455294 -79.15373944898126) rotate(524.737477982585)"><path class="outline" fill="#A5ABB6" stroke="none" d="M 17.324116139070416,-18.03122292025696 L 18.031222920256962,-17.324116139070412 A 435.6297041361254 435.6297041361254 0 0 1 291.8602985689354,-143.57195513142545 L 291.7817739827846,-144.56886730878608 A 436.6297041361254 436.6297041361254 0 0 0 17.324116139070416,-18.03122292025696 Z M 353.79884338919175,-145.0356002918881 L 353.73533212936377,-144.03761916988475 A 435.6297041361254 435.6297041361254 0 0 1 629.4335351927191,-21.92545618647652 L 627.3443829275417,-19.772448333981764 L 634.8054122260697,-17.409602209811684 L 632.219071546289,-24.796133323136196 L 630.1299192811116,-22.64312547064144 A 436.6297041361254 436.6297041361254 0 0 0 353.79884338919175,-145.0356002918881"/><text text-anchor="middle" pointer-events="none" font-size="8px" fill="#000000" x="322.7857742068947" y="-142.40475197420102" transform="rotate(180 322.7857742068947 -145.40475197420102)" font-family="sans-serif">AssociationType</text></g><g class="relationship" transform="translate(262.03585319455294 -79.15373944898126) rotate(524.737477982585)"><path class="outline" fill="#A5ABB6" stroke="none" d="M 24.018736134675446,-6.953439040707552 L 24.277555179777966,-5.987513214418485 A 1166.0285103898711 1166.0285103898711 0 0 1 291.8829431999074,-45.21775480603469 L 291.85362573700087,-46.21732495683386 A 1167.0285103898711 1167.0285103898711 0 0 0 24.018736134675446,-6.953439040707552 Z M 353.87266594513125,-46.38769719621814 L 353.848840713017,-45.38798105734941 A 1166.0285103898711 1166.0285103898711 0 0 1 621.6657266071693,-7.628595698219526 L 620.9052020149178,-4.726595983439966 L 628.5638133736969,-6.337704935429229 L 622.679759396838,-11.49792865125894 L 621.9192348045865,-8.59592893647938 A 1167.0285103898711 1167.0285103898711 0 0 0 353.87266594513125,-46.38769719621814"/><text text-anchor="middle" pointer-events="none" font-size="8px" fill="#000000" x="322.863387424636" y="-43.21456963022706" transform="rotate(180 322.863387424636 -46.21456963022706)" font-family="sans-serif">AssociationType</text></g><g class="relationship" transform="translate(262.03585319455294 -79.15373944898126) rotate(524.737477982585)"><path class="outline" fill="#A5ABB6" stroke="none" d="M 24.018736134675446,6.953439040707552 L 24.277555179777966,5.987513214418485 A 1166.0285103898711 1166.0285103898711 0 0 0 291.8829431999071,45.21775480603469 L 291.85362573700064,46.21732495683386 A 1167.0285103898711 1167.0285103898711 0 0 1 24.018736134675446,6.953439040707552 Z M 353.8726659451312,46.38769719621814 L 353.84884071301695,45.38798105734941 A 1166.0285103898711 1166.0285103898711 0 0 0 621.6657266071693,7.628595698219526 L 620.9052020149178,4.726595983439966 L 628.5638133736969,6.337704935429229 L 622.679759396838,11.49792865125894 L 621.9192348045865,8.59592893647938 A 1167.0285103898711 1167.0285103898711 0 0 1 353.8726659451312,46.38769719621814"/><text text-anchor="middle" pointer-events="none" font-size="8px" fill="#000000" x="322.8633874246359" y="49.21456963022706" transform="rotate(180 322.8633874246359 46.21456963022706)" font-family="sans-serif">AssociationType</text></g><g class="relationship" transform="translate(262.03585319455294 -79.15373944898126) rotate(411.5139293931437)"><path class="outline" fill="#A5ABB6" stroke="none" d="M 24.018736134675446,-6.953439040707552 L 24.277555179777966,-5.987513214418485 A 645.0322558277267 645.0322558277267 0 0 1 157.26936548296825,-27.072134918754955 L 157.216724980259,-28.070748446339394 A 646.0322558277267 646.0322558277267 0 0 0 24.018736134675446,-6.953439040707552 Z M 219.2402330621747,-28.358691991502496 L 219.1968667362428,-27.35963275313111 A 645.0322558277267 645.0322558277267 0 0 1 352.3787105844261,-7.510719701458281 L 351.6291921466968,-4.605857895536371 L 359.28164120453204,-6.245986981077012 L 353.3780685013984,-11.383868776020828 L 352.62855006366914,-8.479006970098917 A 646.0322558277267 646.0322558277267 0 0 0 219.2402330621747,-28.358691991502496"/><text text-anchor="middle" pointer-events="none" font-size="8px" fill="#000000" x="188.22734264282246" y="-25.45949797383537" font-family="sans-serif">AssociationType</text></g><g class="relationship" transform="translate(262.03585319455294 -79.15373944898126) rotate(411.5139293931437)"><path class="outline" fill="#A5ABB6" stroke="none" d="M 24.018736134675446,6.953439040707552 L 24.277555179777966,5.987513214418485 A 645.0322558277267 645.0322558277267 0 0 0 157.2693654829683,27.072134918754955 L 157.21672498025904,28.070748446339394 A 646.0322558277267 646.0322558277267 0 0 1 24.018736134675446,6.953439040707552 Z M 219.24023306217504,28.358691991502496 L 219.19686673624315,27.35963275313111 A 645.0322558277267 645.0322558277267 0 0 0 352.3787105844261,7.510719701458281 L 351.6291921466968,4.605857895536371 L 359.28164120453204,6.245986981077012 L 353.3780685013984,11.383868776020828 L 352.62855006366914,8.479006970098917 A 646.0322558277267 646.0322558277267 0 0 1 219.24023306217504,28.358691991502496"/><text text-anchor="middle" pointer-events="none" font-size="8px" fill="#000000" x="188.2273426428227" y="31.45949797383537" font-family="sans-serif">AssociationType</text></g><g class="relationship" transform="translate(262.03585319455294 -79.15373944898126) rotate(483.2734895508461)"><path class="outline" fill="#A5ABB6" stroke="none" d="M 25 0.5 L 186.80809068658297 0.5 L 186.80809068658297 -0.5 L 25 -0.5 Z M 248.80809068658297 0.5 L 410.61618137316594 0.5 L 410.61618137316594 3.5 L 417.61618137316594 0 L 410.61618137316594 -3.5 L 410.61618137316594 -0.5 L 248.80809068658297 -0.5 Z"/><text text-anchor="middle" pointer-events="none" font-size="8px" fill="#000000" x="217.80809068658297" y="3" transform="rotate(180 217.80809068658297 0)" font-family="sans-serif">AssociationType</text></g><g class="relationship" transform="translate(262.03585319455294 -79.15373944898126) rotate(524.737477982585)"><path class="outline" fill="#A5ABB6" stroke="none" d="M 17.324116139070416,18.03122292025696 L 18.031222920256962,17.324116139070412 A 435.6297041361254 435.6297041361254 0 0 0 291.86029856893555,143.57195513142545 L 291.7817739827848,144.56886730878608 A 436.6297041361254 436.6297041361254 0 0 1 17.324116139070416,18.03122292025696 Z M 353.7988433891918,145.0356002918881 L 353.7353321293638,144.03761916988475 A 435.6297041361254 435.6297041361254 0 0 0 629.4335351927191,21.92545618647652 L 627.3443829275417,19.772448333981764 L 634.8054122260697,17.409602209811684 L 632.219071546289,24.796133323136196 L 630.1299192811116,22.64312547064144 A 436.6297041361254 436.6297041361254 0 0 1 353.7988433891918,145.0356002918881"/><text text-anchor="middle" pointer-events="none" font-size="8px" fill="#000000" x="322.78577420689487" y="148.40475197420102" transform="rotate(180 322.78577420689487 145.40475197420102)" font-family="sans-serif">AssociationType</text></g><g class="relationship" transform="translate(262.03585319455294 -79.15373944898126) rotate(483.2734895508461)"><path class="outline" fill="#A5ABB6" stroke="none" d="M 21.40063509461097,-12.933012701892217 L 21.90063509461097,-12.06698729810778 A 397.91345295265535 397.91345295265535 0 0 1 186.8339248163499,-63.920032662191545 L 186.7484202009565,-64.91637043661666 A 398.91345295265535 398.91345295265535 0 0 0 21.40063509461097,-12.933012701892217 Z M 248.76172264686812,-65.4001168757091 L 248.6917717317777,-64.40256644115556 A 397.91345295265535 397.91345295265535 0 0 1 414.41391970876026,-15.12886106130882 L 412.95463334861165,-12.507700379648101 L 420.77317569266006,-12.160719667905408 L 416.35963485562513,-18.623741970189776 L 414.9003484954765,-16.00258128852906 A 398.91345295265535 398.91345295265535 0 0 0 248.76172264686812,-65.4001168757091"/><text text-anchor="middle" pointer-events="none" font-size="8px" fill="#000000" x="217.74955698862908" y="-62.8651601632464" transform="rotate(180 217.74955698862908 -65.8651601632464)" font-family="sans-serif">AssociationType</text></g><g class="relationship" transform="translate(19.20066612255914 290.9005213467473) rotate(351.74276511334995)"><path class="outline" fill="#A5ABB6" stroke="none" d="M 17.324116139070416,-18.03122292025696 L 18.031222920256962,-17.324116139070412 A 317.9511676116895 317.9511676116895 0 0 1 208.76897241200942,-108.61729889618036 L 208.66176199517497,-109.61153524963069 A 318.9511676116895 318.9511676116895 0 0 0 17.324116139070416,-18.03122292025696 Z M 270.6579354263216,-110.2359013388328 L 270.5707707170345,-109.23970742525225 A 317.9511676116895 317.9511676116895 0 0 1 463.10848117515917,-21.806508063431696 L 461.0303145824248,-19.642894509017978 L 468.5032739009136,-17.318054939453752 L 465.8793699654717,-24.691326135983317 L 463.80120337273735,-22.5277125815696 A 318.9511676116895 318.9511676116895 0 0 0 270.6579354263216,-110.2359013388328"/><text text-anchor="middle" pointer-events="none" font-size="8px" fill="#000000" x="239.6496770548084" y="-107.93370867749897" font-family="sans-serif">AssociationType</text></g><g class="relationship" transform="translate(19.20066612255914 290.9005213467473) rotate(351.74276511334995)"><path class="outline" fill="#A5ABB6" stroke="none" d="M 24.018736134675446,-6.953439040707552 L 24.277555179777966,-5.987513214418485 A 844.5247696447435 844.5247696447435 0 0 1 208.78255582740923,-34.076322141816036 L 208.74220876475104,-35.07550786756224 A 845.5247696447435 845.5247696447435 0 0 0 24.018736134675446,-6.953439040707552 Z M 270.7645617559335,-35.303298527074276 L 270.73155513905704,-34.303843393892976 A 844.5247696447435 844.5247696447435 0 0 1 455.4379001365056,-7.571043902897173 L 454.6827491042821,-4.667641257976602 L 462.3383648133575,-6.29292526852909 L 456.44476817947026,-11.442247429457936 L 455.68961714724674,-8.538844784537364 A 845.5247696447435 845.5247696447435 0 0 0 270.7645617559335,-35.303298527074276"/><text text-anchor="middle" pointer-events="none" font-size="8px" fill="#000000" x="239.7531322299731" y="-32.25829776441458" font-family="sans-serif">AssociationType</text></g><g class="relationship" transform="translate(19.20066612255914 290.9005213467473) rotate(351.74276511334995)"><path class="outline" fill="#A5ABB6" stroke="none" d="M 24.018736134675446,6.953439040707552 L 24.277555179777966,5.987513214418485 A 844.5247696447435 844.5247696447435 0 0 0 208.78255582740954,34.076322141816036 L 208.74220876475135,35.07550786756224 A 845.5247696447435 845.5247696447435 0 0 1 24.018736134675446,6.953439040707552 Z M 270.7645617559335,35.303298527074276 L 270.73155513905704,34.303843393892976 A 844.5247696447435 844.5247696447435 0 0 0 455.4379001365056,7.571043902897173 L 454.6827491042821,4.667641257976602 L 462.3383648133575,6.29292526852909 L 456.44476817947026,11.442247429457936 L 455.68961714724674,8.538844784537364 A 845.5247696447435 845.5247696447435 0 0 1 270.7645617559335,35.303298527074276"/><text text-anchor="middle" pointer-events="none" font-size="8px" fill="#000000" x="239.75313222997326" y="38.25829776441458" font-family="sans-serif">AssociationType</text></g><g class="relationship" transform="translate(500.6902877297123 221.02577048081145) rotate(531.74276511335)"><path class="outline" fill="#A5ABB6" stroke="none" d="M 17.324116139070416,-18.03122292025696 L 18.031222920256962,-17.324116139070412 A 317.9511676116895 317.9511676116895 0 0 1 208.76897241200942,-108.61729889618036 L 208.66176199517497,-109.61153524963069 A 318.9511676116895 318.9511676116895 0 0 0 17.324116139070416,-18.03122292025696 Z M 270.6579354263216,-110.2359013388328 L 270.5707707170345,-109.23970742525225 A 317.9511676116895 317.9511676116895 0 0 1 463.10848117515917,-21.806508063431696 L 461.0303145824248,-19.642894509017978 L 468.5032739009136,-17.318054939453752 L 465.8793699654717,-24.691326135983317 L 463.80120337273735,-22.5277125815696 A 318.9511676116895 318.9511676116895 0 0 0 270.6579354263216,-110.2359013388328"/><text text-anchor="middle" pointer-events="none" font-size="8px" fill="#000000" x="239.6496770548084" y="-107.93370867749897" transform="rotate(180 239.6496770548084 -110.93370867749897)" font-family="sans-serif">AssociationType</text></g></g><g class="layer nodes"><g class="node" transform="translate(262.03585319455294,-79.15373944898126)"><circle class="outline" cx="0" cy="0" r="25" fill="#DE9BF9" stroke="#BF85D6" stroke-width="2px"/><text text-anchor="middle" pointer-events="none" y="5" font-size="10px" fill="#FFFFFF" font-family="sans-serif"> BRCA1</text></g><g class="node" transform="translate(19.20066612255914,290.9005213467473)"><circle class="outline" cx="0" cy="0" r="25" fill="#DE9BF9" stroke="#BF85D6" stroke-width="2px"/><text text-anchor="middle" pointer-events="none" y="5" font-size="10px" fill="#FFFFFF" font-family="sans-serif"> POLR2A</text></g><g class="node" transform="translate(-367.68877872894143,92.67676535165344)"><circle class="outline" cx="0" cy="0" r="25" fill="#DE9BF9" stroke="#BF85D6" stroke-width="2px"/><text text-anchor="middle" pointer-events="none" y="5" font-size="10px" fill="#FFFFFF" font-family="sans-serif"> TUBG1</text></g><g class="node" transform="translate(500.6902877297123,221.02577048081145)"><circle class="outline" cx="0" cy="0" r="25" fill="#DE9BF9" stroke="#BF85D6" stroke-width="2px"/><text text-anchor="middle" pointer-events="none" y="5" font-size="10px" fill="#FFFFFF" font-family="sans-serif"> MED21</text></g></g></svg>